<svg width="84" height="84" fill="none" xmlns="http://www.w3.org/2000/svg"><path fill-rule="evenodd" clip-rule="evenodd" d="M42 8.4 4.4 45.9l2.2 2.2 7.4-7.5V78h-4v3h65v-3h-5V40.6l7.4 7.5 2.2-2.2-9.6-9.5V9H56v13.4l-14-14Zm17 17 8 8V12h-8v13.4Zm8 12.2-25-25-25 25V78h50V37.6ZM34 50v24h16V50H34Zm3 21V53h10v18H37ZM21 50h3v4h-3v-4Zm9 0h-3v4h3v-4Zm-9 6h3v4h-3v-4Zm9 0h-3v4h3v-4Zm24-6h3v4h-3v-4Zm9 0h-3v4h3v-4Zm-9 6h3v4h-3v-4Zm9 0h-3v4h3v-4ZM37 36a5 5 0 1 1 10 0 5 5 0 0 1-10 0Zm5-8a8 8 0 1 0 0 16 8 8 0 0 0 0-16Z" fill="#000"/></svg>