<svg width="84" height="84" fill="none" xmlns="http://www.w3.org/2000/svg"><path d="M74.9 57.7H9.1A4.2 4.2 0 0 0 5 62v3.5c0 2.4 1.9 4.3 4.1 4.3h.9v1.1A10 10 0 0 0 19.6 81h44.6c5.3 0 9.6-4.5 9.6-10.1v-1.1h.9c2.3 0 4.1-1.9 4.1-4.3V62a4 4 0 0 0-3.9-4.3ZM71 70.9c0 3.9-3 7-6.7 7H19.6a6.9 6.9 0 0 1-6.7-7v-1.1H71v1.1Zm5.1-5.4c0 .7-.6 1.3-1.2 1.3H9c-.7 0-1.2-.6-1.2-1.3V62c0-.7.6-1.3 1.2-1.3h65.8c.7 0 1.2.6 1.2 1.3l.1 3.5ZM20.6 49.4l5.4 4.1 5.3-4.1 5.3 4.1 5.3-4.1 5.4 4.1 5.3-4.1 5.3 4.1 5.4-4.1 5.3 4.1 6.2-4.7-1.7-2.5-4.5 3.4-5.3-4.1-5.4 4.1-5.3-4.1-5.3 4.1-5.4-4.1-5.3 4.1-5.3-4.1-5.3 4.1-5.4-4.1-5.3 4.1-4.5-3.4-1.7 2.5 6.2 4.7 5.3-4.1ZM13 42.5h60.8l.1-1.9v-1.2C73.2 23.7 59.2 11 42 11c-17.3 0-31.3 12.7-32 28.5v1.2l.1 1.9H13v-.1ZM42 14c15.6 0 28.4 11.3 29 25.5H13C13.6 25.4 26.4 14 42 14Z" fill="#000"/><path d="M42 28.3a2 2 0 0 0 1.9-2 2 2 0 0 0-1.9-2 2 2 0 0 0-1.9 2c0 1.1.9 2 1.9 2ZM34.2 23.2a2 2 0 0 0 1.9-2 2 2 0 0 0-1.9-2 2 2 0 0 0-1.9 2c0 1.1.9 2 1.9 2ZM49.7 23.2a2 2 0 0 0 1.9-2 2 2 0 0 0-1.9-2 2 2 0 0 0-1.9 2c0 1.1.9 2 1.9 2Z" fill="#000"/></svg>