<svg width="138" height="70" fill="none" xmlns="http://www.w3.org/2000/svg"><g clip-path="url(#a)"><path d="M138 0H0l59.5 65.7a12.5 12.5 0 0 0 19 0L138 0Z" fill="#81B3D3"/><path d="m36.7.5 32.1 37.9 32-37.7L36.7.5Z" fill="#23A9E1"/><path d="M61.1 14.7h17.3c-1.3-.8-4.4-4.6-6-3.2-.1.1-4.9-5.7-8-2.9-2.7 2.5-4-.3-7 1.6-3.6 2.4 2 3.7 3.7 4.5Zm26.7-3.5-9.8.1c3.9-4.5 5.6-4 9.8-.1Z" fill="#fff"/><path d="M97.6 3.6V1.2h2.1l-2.1 2.4ZM48.4 13c.1.1 2.4-2.4 6.1-4.9 3.4-2.3 8.6-4.9 14.4-4.9a27 27 0 0 1 14.5 5c3.7 2.4 6 4.8 6.1 4.9l-2.5 3c-4.5.6-7.7 3.9-12.1 3.2-2.2-.4-2.3-1.6-2.9-2.9-.5-1-1.3-.8-2.3-1.2-.9-.4-1.5-1.1-3.4-.7-1.6.4-1.8 2.9-3.9 2.8-1.1-.1-1.2-1.6-2.8-3.6-4.1-4.9-7.8-4.3-10.4.2l-.8-.9ZM40 1.2v1.9l-1.6-1.9H40Zm53.9 0h3.2v3L93.9 8V1.2Zm-4.1 11.4V1.2h3.5v7.4l-3.5 4Zm-.5-10.4v9.9a26 26 0 0 0-3.6-3l3.6-6.9Zm-4.1-.3v6.8l-1.5-1-2.2-1.3 3.7-4.5Zm-4.4-.2V6l-3.1-1.5 3.1-2.8Zm.6-.5h3.7l-3.7 4.6V1.2Zm4.3 0h3.6l-3.6 7.1V1.2Zm-8.8 0h3.9l-3.5 3.1-.3-.1-.1-3Zm-.5.4V4c-1-.4-2-.7-3.1-.9l3.1-1.5Zm-4.2 0v1.3L70 2.6l2.2-1Zm-6.8 0 2.2 1c-.8 0-1.5.1-2.2.3V1.6Zm-4.1 0 3.1 1.5c-1.1.2-2.1.5-3.1.9V1.6Zm3.6 1.2-3.3-1.6h3.3v1.6Zm3.5-.4-2.8-1.3h2.8v1.3Zm.7-1.2H72l-2.9 1.3V1.2Zm3.7 0H76l-3.2 1.6V1.2ZM60.4 4.3l-3.5-3.1h3.9v3l-.4.1Zm-3.6-2.6 3.1 2.7c-1.1.4-2.1.9-3.1 1.5V1.7Zm-4.3.2 3.6 4.5c-1.3.7-2.5 1.5-3.6 2.4V1.9Zm-4.2.3 3.6 7c-1.3 1-2.5 2-3.6 3.2V2.2Zm3.7 6-3.6-7.1H52v7.1Zm4.3-2.5-3.7-4.6h3.7v4.6ZM43.7 7.5l-3.2-3.8V1.2h3.2v6.3Zm.6-6.3h3.5v11.2l-3.5-4.2v-7ZM36 0v14.6l33 39.9L102 15V0H36Z" fill="#491213"/><path d="m66.4 46 2.6-4.2 2.6 4.2-2.6 4.2-2.6-4.2Z" fill="#23A9E1"/><path d="M74.2 30.6c-3.4-2-2.6-3.5.2-4.9 1.5-.7 4.8-3.4 6.1-2.5l-6.3 7.4Zm-2.3 2.5c-2-.1-4.3-.4-6.3.1 1.2.3 4.2 1.2 1.4 1.9 1 1.4 2.6 1.3 3.6.1l-1-.7c1.1-.3 2.1-.9 2.3-1.4Zm1.2-1.6c-.9-.8-1.9-.8-2.7 0-1.2-2.1-5.4-1.4-7.4-1.7 1.1 2.6 9.6 3.1 10.1 1.7Zm-6.8-2.2c-1.6-.5-6.8-.4-3.4-1.8 1.1-.4 6.7.1 3.4 1.8Zm2-3c-.5-1.1.4-2.4 1.7-1.4 1.2.8-.6 2-1.7 1.4Zm-2.9.1c-2.3.7-5.3-.8-1.6-1.5 2.3-.5 4.7.5 1.6 1.5.1 0-.1 0 0 0Zm-2.6-6.2c-.5 1.6-1.5 1.9-1.4 0 .1-2.3 1.6-1.7 3.2-2.6 1.3-.7 2-3.4 4.3-1.8 1 .7 2.2.1 2.5 1.2 0-.1-2.9 6.7-1.3 6.7-3.2 0-1.8-3.8-.6-6.4-1.2.6-3.1 4.3-1.5 5-.8 1.1-3.4 2.6-4.7 1.5-1.1-1-.5-2.3-.5-3.6Zm-4 2.8c-5.6 0-1.8-8.6.1-8.1 2.2.7 1.9 8.2-.1 8.1Zm-6.2-8.2c-2.6-.1-1.5-2.6.3-3.1 1.7-.5 5.2 1.1 6.4 2.2-1.8.6-4.1.5-6.1.6-.2-2-.7-1.3-.6.3Z" fill="#DC6243"/><path d="M71.8 25.8c-2.9-3 4.3-2.7 5.5-3.8.8.3 7-5.4 8.5-5-1.1 1.3-3.4 5.3-5 5.3-1.3 0-2.6-.2-3.6.7-1.5 1.4-3.9 2.1-5.4 2.8Z" fill="#F49774"/><path d="M72.7 22.2c-1.6.9-3.1-2.5-.3-2.2 1.8.2 3.7-.2 5.4.1a5.9 5.9 0 0 1-5.1 2.1Z" fill="#F4B1A4"/><path d="M51.1 20.9c.3.4.6.8.5 1.4 0 .4-.6 1-.2 1.2l1.5-1.8a20 20 0 0 1-3.5-4.2l-2.1 1.1c.1.4.8 0 1.2 0 .5 0 .9.4 1.3.7-1.1.9-3.8 3.3-4.1 3.3-.1 0-.7-.4-.7 0 0 .2.6.7.7.8l1.4 1.7c.4-.2-.1-.5.1-.8l3.9-3.4Zm-3.4-4.5c.3-.1.4.3.6 0l-1.6-1.9c-.2-.3-.5-.6-.5 0 .1.4-4 3.7-4.2 3.8-.3.1-.5-.3-.7.1l1.4 1.7.5.6c.2.2.1-.4.1-.4a23.4 23.4 0 0 1 4.4-3.9Zm-5.7-.6c-1.1.3-2.4-.1-2.7-1.3-.4-1.2.4-2.4 1.3-3.1.9-.7 2.3-.6 2.8.5.2.5.1 1.1-.1 1.6-.1.3-.4.6 0 .8l1.7-2.1c-.7-.4-1-1.1-1.5-1.7-.6-.7-1.3-1.4-2.3-1.5-1.9-.3-3.6 1.7-3.8 3.4-.1.9.2 1.8.8 2.6.5.6 1.2 1.1 1.6 1.8.2.1 1.8-.7 2.1-.8.2 0 .1-.1.1-.2-.5.2 0 0 0 0Zm25.5 23.6c-.7-.5-2.6-3-3-3.5l-.2-.3-.2.1v.6c-.5.8-3.7 3.2-3.9 3.4-.4.2-.8-.1-1 .2.5.6 1.8 2.3 2 2.3.3 0 .1-.5.1-.6l2.3-2.1c.2-.2.4.3.6.5.2.3.3.7.2 1-.1.2-.5.6-.2.8l1.7-2c.2-.2-.4 0-.3-.1-.2.1-.5.2-.7 0-.1 0-.7-.7-.6-.8.3-.2.6-.6 1-.7.6-.1 1 1 1.1 1.4.1.4.1.8-.1 1.1-.1.3-.3.5 0 .6l1.4-1.9c0 .1-.1.1-.2 0-.1 0 .1.1 0 0Zm-9.2-8.9c-.7 0-1.4.3-2 .8a3.6 3.6 0 0 0-.5 4.8c1.3 1.7 3.4 1.9 5.1.7a3.6 3.6 0 0 0 .5-4.8 4 4 0 0 0-3.1-1.5Zm1.2 1.4c.9-.1 1.5.8 1.1 1.8-.4 1-1.4 2-2.4 2.4-1.2.5-2-.5-1.5-1.7.4-1 1.4-2 2.4-2.4l.4-.1Zm-2.8-4.6c.3 0 .6.4.8 0l-1.4-1.7c-.4.2 0 .4-.1.6-.2.3-1.7.5-2.1.6a6 6 0 0 1 .8-1.8c.4-.3.6.3.8-.1l-1.8-2.1c-.2-.2-.4-.7-.6-.4l-.1 1.1c-.1.2-.6 2.4-1.2 2.9a11 11 0 0 1-1.8 1.4c-.3.1-.5-.4-.8 0l1.6 1.9.5.6c.3.1 0-.6.1-.7.1-.3 1.6-1.8 2.3-1.9.9-.2 2-.5 3-.4.2 0-.2 0 0 0ZM80.9 34c.1.4.2.9.1 1.3-.1.6-.6 1.9-1.4 1.5-.8-.4-1.4-1.1-2.1-1.7.5-.6 1-1.1 1.9-.8.2.1.4 0 .2-.2a12 12 0 0 0-2.1-1.2c-.2.2.3.6.1 1l-.6.8c-.5-.4-1.2-.8-.7-1.5.4-.4.8-.8 1.4-.9.4-.1 1.2.3 1.3-.1l-2.1-1c.1.5-2.2 2.9-2.7 3.5l-.4.5c0 .3.4.1.4.1.3-.1 4.4 3.3 4.5 3.6v.5l.2.1c.3-.3 2.9-3.9 3.5-4l-1.5-2.4c-.4.2-.1.7 0 .9Zm-4 4.4c-1.3-.9-3.6.8-4 1-.7.3-1.2-.4-.8-1 .3-.5.9-.8 1.5-.8h.9c.1-.1.1-.1 0-.2l-1.7-1.1c-.1.7-.9 1.1-1.3 1.6-.5.6-1 1.3-1 2s.4 1.4 1.1 1.7c.7.4 1.5.1 2.2-.3l1.2-.8c.6-.3 1.5 0 1.3.8-.2.7-.9 1.3-1.6 1.5-.4.1-.8.1-1.2-.1-.3-.1-.6-.5-.8-.1l2.3 1.6c.1-.5.3-.7.7-1l1.3-1.4c.8-.9 1.1-2.5-.1-3.4Zm17.6-28.1c0 .1 0 .1 0 0l-.9 1-.8 1c-.2.2-.3.3 0 .5.5-.3 3.5 4.8 3.3 5.5a20 20 0 0 1-4.6-3.5c0-.1.2-.7-.1-.6l-.6.7-.6.7c.2.3.3 0 .6 0l1.5 1.1-1.9.1c-.6.1-.3-.4-.7-.6L88.2 18l-.9 1v.1c.2.2.1.1.4 0 .3-.1 4.3 3.2 4.4 3.4.2.3-.1.6.3.8l1.2-1.4c.1-.1.1-.1 0-.1-.3-.2-.3.1-.7.1-.3-.1-2.9-2.2-3.8-3l5.3-.2c.2 0 .7.6.7.8-.1.2-.3.4 0 .5l.9-1.1.1-.2.1-.2.1-.1c.3-.3 1.2-1.3 1.1-1.4-.3-.3-.4.3-.8 0a11 11 0 0 1-.9-1.4c-.2-.3.4-.6.6-.7.5-.3 2.1-.8 2.3.2 0 .2-.2.4-.1.5 0 0 .1.2.2.1l2.1-2.6-.2-.2c-.5.5-5.5-1.5-5.8-1.8-.1-.2-.1-.8-.3-.8Zm-.2 2.6 2.3 1-.6.3-.6.5-1.1-1.8Zm-6.6 7.7c-1.1-.1-2.2.4-3 1.3-1.2 1.5-1.1 3.7.4 4.9 1.5 1.2 3.7.9 4.9-.5 1.2-1.5 1.1-3.7-.4-4.9a4 4 0 0 0-1.9-.8Zm-1.4 1.6c.6 0 1.3.4 1.7.7.8.5 2.2 1.7 1.5 2.7l-.1.1c-.8.8-2.2.1-2.9-.5-.7-.5-2-1.7-1.2-2.7.3-.2.6-.3 1-.3Zm-3.1 4.3c-1.2-.1-2.4.5-3.3 1.6L78 30.4c.2.3.5-.1.8.1.3.2 4.1 3.3 4.1 3.5.1.3-.2.4.1.6.1.1 2.9-3.4 3.2-4a3 3 0 0 0-.8-3.2c.1.1.2.1 0 0-.8-.6-1.5-.9-2.2-.9Zm-1.1 1.6h.3c1.4.4 3.4 2.1 2.1 3.6l-.4.4c-.2.2-4.2-3-4-3.2.4-.5 1.3-.9 2-.8Z" fill="#fff"/></g><defs><clipPath id="a"><path fill="#fff" d="M0 0h138v70H0z"/></clipPath></defs></svg>